<svg xmlns="http://www.w3.org/2000/svg" width="400" height="400"><g fill-rule="evenodd"><path fill="#ad6247" d="M0 200v200h30c28 0 31-.1 29.6-1-.2-.1-.3-.4-.2-.6.4-.7-3.4-3.8-9.7-7.7-19.3-12-25.3-25.1-20.7-45.9 4.3-19.7 7.6-30.6 10.5-35.4 2.1-3.4 2.8-5.2 3-8.4.4-3.3.5-3.5 3.5-6.8 2.7-3.1 10.2-20 13.8-31l1.8-4.8 1.5-4c1-3.1 2.7-7.2 6.9-16 1.7-3.6 4.4-10.1 6-14.4 1.7-4.3 4.1-10 5.5-12.6 4.4-8.6 16.6-33.7 17.7-36.6l4-8.2a77.5 77.5 0 0 0 7-16.5c1.2-4.7 2.6-7.4 6.8-12.5a84 84 0 0 0 5.5-8.2 205 205 0 0 1 9.8-16 131.2 131.2 0 0 0 14.3-21.9l2.6-4.7a99.2 99.2 0 0 1 7.8-12c1.5-1.6 5.9-8 8.4-12 8.8-14.3 21.6-23 34.6-23.9 7-.4 21.6 2.6 36.3 7.5l11.2 3.4c3 .8 7 2 9 2.8 2 .8 8 3 13.6 4.8 5.6 1.8 11.4 4 13 4.8 3.3 1.6 8.2 3.3 14.7 5a61 61 0 0 1 7.6 2.5 72 72 0 0 0 13.4 3.9c.4 0 2.5.5 4.6 1.2a28 28 0 0 0 5.2 1.2c.7 0 2.8.4 4.7.8 15.4 3.6 29.5 3.4 37.3-.8 1.3-.6 2.6-1.2 3-1.2.7 0 4.7-4 5.6-5.6.5-.8 1.5-1.9 2.4-2.5 1.8-1.3 4-6.3 4-9.3a236.3 236.3 0 0 0 3-43.8l.3-11.8.1-1.6L194.5.1 0 0v200M40.6 81.4c11.6 3.2 16.2 19.5 7.8 27.8-10.2 10.3-27.7 5-29.7-9.1C17 87.5 28.1 78 40.6 81.4"/><path fill="#fbfaf8" d="M199.5 67c-5 2-11.8 8-17.5 15-3.3 4.1-4.4 6-11.4 19a261236.8 261236.8 0 0 1-12.5 22.7c-1.2 2-6 11-10.6 20.2s-9.6 18.7-11 21.1a192 192 0 0 0-6.4 12 1798.9 1798.9 0 0 1-14.4 28.6 967.4 967.4 0 0 0-18.2 38l-7.3 15c-2.5 4.8-4.7 9.4-5 10.2-.7 2-7.8 16.9-14.6 30.6a374 374 0 0 0-10.4 22.8c-1.6 3.5-7.6 21.2-9 26.6-3.2 11.8.8 19 16.2 28.6l10.2 6.5c1.9 1.2 7 4 11.4 6 10.2 5 12.2 6.6 12.6 9.8 0 .2 62.8.3 139.6.3h139.5l.2-1.5c.4-2.8.8-3.8 3.7-8.9 1.6-2.8 3.6-6.6 4.4-8.4 4.8-10.8 8-15.4 10.2-15l.8.2V142h-1.1c-2 0-2.9-.2-2.9-.6a41.9 41.9 0 0 1-11.2-5.9 70.9 70.9 0 0 0-22.4-9.7 310.5 310.5 0 0 1-67.2-25.2c-6-2.3-15.4-6.6-25.8-11.9a236 236 0 0 0-33.2-14.4c-17.3-7.2-30.8-9.8-36.7-7.3"/><path fill="#e5bca2" d="M196.5 51.2a37 37 0 0 0-18.5 13c-3 4.1-10 15.5-12.3 19.7L158 97.6a446.2 446.2 0 0 0-15 27l-4.3 8.1a50 50 0 0 1-8.9 12.4c-2.1 2-3.1 4.2-3.7 7.9-.8 5-7.2 19.5-13.2 30-4.3 7.6-6.1 11.2-9 17.9a108 108 0 0 1-5.4 10.8 55 55 0 0 0-7.3 14.1c-.6 2.2-2.6 7-4.3 10.6a356.3 356.3 0 0 0-8.6 19.2 278 278 0 0 0-4.3 10c-1 2.8-3.5 7.8-5.3 11.3-3.4 6.2-6 11.6-11.7 24.5-4 9-5.3 11.5-7.7 14.8a19.4 19.4 0 0 0-4.3 10c-.3 1.8-1.6 6.8-3 11.2-5.7 17.4-6 23.5-1.9 31.4 3.4 6.3 15 15.4 28.4 22.2a55.9 55.9 0 0 1 8.8 5.2c.7.2 2.1 2.4 1.7 2.7-.1.2 0 .3.3.3.2 0 .3.2.2.4-.2.3 3.6.4 11 .4h11.2l-.2-1c-.4-2.6-2.8-4.3-12.4-9a159.7 159.7 0 0 1-21.6-12.6C52 367.7 48 360.6 51.1 348.8a376.6 376.6 0 0 1 12-33.4c1-2.4 4.3-9.6 7.5-16a750.5 750.5 0 0 0 14.6-30.6 691.3 691.3 0 0 0 19.3-40.4 967.4 967.4 0 0 1 20-40.2l5.6-11.2c2-4.2 5-9.6 6.4-12 1.4-2.4 6.4-11.9 11-21a577.6 577.6 0 0 1 15.8-29.4l7.3-13.6c7-13 8.1-14.9 11.4-19 5-6.2 12.3-12.6 16.7-14.7 6.2-3 19.5-.4 37.4 7l8.5 3.2a236 236 0 0 1 24.8 11.2c10.4 5.3 19.8 9.6 25.8 11.9 2 .8 6.5 2.8 9.8 4.4 3.3 1.6 8 3.8 10.6 4.8l11.5 4.8a126.6 126.6 0 0 0 17.5 6.2c5.7 1.8 12 3.6 17.8 5a69 69 0 0 1 22.4 9.8 41.9 41.9 0 0 0 11.2 5.8c0 .3.3.4.7.5h1.1c.2.1.8.2 1.3.1h.9v-10.4c0-11.7.3-10.6-3.4-11a336 336 0 0 1-25.6-7c-4-1.3-8.1-2.6-9.2-2.8-4.6-1-22.3-7-33.4-11.5L317.2 95a234 234 0 0 1-13.2-5.7 1236.4 1236.4 0 0 0-35.7-16 194 194 0 0 1-10.6-4.4c-33-15-50.7-20.2-61.2-17.6m200 316.5c-1.8 1.7-4 5.5-7.5 13.5-.8 1.8-2.8 5.6-4.4 8.4-2.9 5.1-3.3 6-3.7 8.9l-.2 1.5h8.8c9 0 11-.4 10-2a111 111 0 0 0 .5-16c-.2-18 0-17.4-3.5-14.3"/><path fill="#dcb478" d="M294.8 84.7c0 .2.9.7 1.9 1.1l2.2 1c.2 0 .3-.2.3-.4 0-.3-.1-.4-.2-.3-.2.2-1.2-.2-2.2-.7-1.1-.6-2-.9-2-.7m-261.5.5c-6.3 1.3-11.5 7.9-10.7 13.6.7 4.7 4.9 10 8.5 10.7 4 .8 8.6.4 9.9-1 .3-.2.6-.5.8-.5.3 0 1.7-1.2 3-2.4 7.4-7.7-.9-22.5-11.5-20.4M307 90.6c2 1 6.6 3 10.2 4.3l11.2 4.4a361 361 0 0 0 33.4 11.5c1.1.2 5.2 1.5 9.2 2.8a336 336 0 0 0 25.6 7l2.7.4c.7.2.7-.4.7-11.5 0-6.4-.2-11.4-.3-11 0 .4-.3.7-.5.7s-.4.4-.4.9-.2.7-.3.4a.5.5 0 0 0-.6-.2c-.3.1-.3 0 0-.3.7-.8.6-1.2-.3-1l-.8.6c0 .2-.3.4-.6.4s-.6.4-.6.9c0 .9 0 .9-.4-.1-.3-.9-.3-1-.4-.1 0 2-4.1 2.8-15.3 3a42 42 0 0 0-9 .5c-1.3 0-2.2-.1-2-.3.3-.2-.3-.2-1.3-.1h-1.3c.3-.3-.2-.4-1.2-.4-1.4 0-6.1-.5-6.1-.6l-6-.6c-5.1-.4-6.4-.6-7.4-1-.6-.1-1.2-.2-1.5-.1-.2 0-.5 0-.7-.3-.1-.2-.5-.3-.8-.1-.3 0-.6 0-.6-.2 0-.3-.3-.4-.6-.2-.3 0-.6 0-.6-.3 0-.2-.2-.3-.3-.2a22 22 0 0 1-3.3-.8c-1.6-.5-3-.9-3.3-.8-.1.1-.3 0-.3-.2s-.2-.4-.5-.3c-.3 0-1.1-.1-1.9-.4l-2.4-.7c-.5 0-2.3-.6-3.9-1.1a9 9 0 0 0-2.9-.8l-.4-.2a1 1 0 0 0-1-.2c-.4 0-.6 0-.6-.2 0-.1-.4-.3-.9-.4a11.1 11.1 0 0 1-3.1-.7l-.7-.2h-.6c-.2 0-1.3-.4-2.5-1l-2.2-.8-2.1-.8c-3.8-1.7-4.2-1.4-.5.4m86 10.8c-1 .5-1 .6-.2.4l1.4-.6c.5-.5.2-.5-1.2.2m-10.1 1.7h3c.8 0 .2-.2-1.5-.2-1.6 0-2.3.1-1.5.2m-251.4 39.4c-.8.6-1.5 1-1.5.9 0-.2-.4 0-.8.4s-.8.6-.8.4c0-.2-.4 0-.8.4s-.8.6-.8.4c0-.2-.3 0-.6.2-.3.3-.6.4-.6.2s-.3 0-.6.2c-.3.3-.5.6-.4.8.1.2 0 .5-.4.8-.4.3-.5.7-.2 1.5.2.5.4 1.4.4 2 0 .5.3 1.6.7 2.4l.6 1.5.4-2.2c.5-3 1.6-5.3 3.6-7.3 3.7-3.7 4.4-4.8 1.8-2.6m-33 68.4c-1.3 2.3-1.4 2.5-.7 1.7.8-1 1.5-2.2 1.2-2.2 0 0-.3.2-.4.5m-2 3.2c-1.4 2.3-1.5 2.5-.8 1.7.8-1 1.5-2.2 1.2-2.2 0 0-.3.2-.4.5m302.8 184c.2.2 0 .7-.4 1.1-.7.8-.7.8.1.8.7 0 .9-.2.9-1.2 0-.7-.2-1.2-.4-1.2-.3 0-.3.2-.2.4"/><path fill="#d49c84" d="m388.9 1.5-.3 11.9a237.7 237.7 0 0 1-3 44c0 3-2.2 8-4 9.3-.9.6-2 1.7-2.4 2.5-.9 1.7-5 5.6-5.7 5.6-.3 0-1.6.6-2.9 1.2-7.8 4.2-22 4.4-37.3.8-1.9-.4-4-.8-4.7-.8-.7 0-3-.5-5.2-1.2-2.1-.7-4.2-1.2-4.6-1.2a72 72 0 0 1-13.4-3.9 61 61 0 0 0-7.6-2.5 78.7 78.7 0 0 1-14.7-5c-1.6-.9-7.4-3-13-4.8a405 405 0 0 1-13.7-4.8c-2-.8-6-2-8.9-2.8l-11.2-3.4a123.1 123.1 0 0 0-36.3-7.5c-13 .9-25.8 9.6-34.6 24-2.5 4-7 10.3-8.4 11.9a99.2 99.2 0 0 0-10.4 16.7l-2.8 4.8c-1.9 3.8-7.6 12.2-11.5 17.1-1.4 1.6-7.1 11-9.8 16a68.7 68.7 0 0 1-5.5 8.2 29.6 29.6 0 0 0-6.8 12.5c-1.4 5-2.9 8.6-7 16.5l-4 8.2c-1 3-13.3 28-17.7 36.6-1.4 2.6-3.8 8.3-5.5 12.6-1.6 4.3-4.3 10.8-6 14.4a134.4 134.4 0 0 0-8.4 20l-1.8 4.8c-3.6 11-11 27.9-13.8 31-3 3.3-3.1 3.5-3.4 6.8-.3 3.2-1 5-3 8.4-3 4.8-6.3 15.7-10.6 35.4-4.6 20.8 1.4 34 20.7 46 5.9 3.6 10 6.7 9.8 7.5-.3 1.6.3 1.7 10.1 1.7 6 0 9.6-.2 9.8-.4.1-.2 0-.4-.2-.4-.3 0-.4-.1-.3-.3.4-.3-1-2.5-1.8-2.7a55.9 55.9 0 0 0-8.7-5.2c-13.3-6.8-25-16-28.4-22.2-4-7.7-3.8-14.2 1.4-30a51.1 51.1 0 0 0 3.9-17.1c0-.3.2-.5.4-.5s.2-.2.1-.4 0-.4.2-.4.3-.2.2-.4c-.1-.2 0-.4.1-.4 1.5 0 6-7.7 10.6-18.2 5.7-13 8.3-18.3 11.7-24.5 1.8-3.5 4.2-8.5 5.3-11.3 1.1-2.8 3-7.3 4.3-10l4.5-10.2c1.2-2.9 3-6.7 3.9-8.6a49 49 0 0 0 5.2-13.5l1.1-3.2c0-.3.2-.5.4-.5s.2-.2.1-.4 0-.4.1-.4c.3 0 .6-.4.7-.9.2-.5.4-1 .6-1.1 1.4-1 7.6-12.4 10.2-18.6 1-2.5 3.5-7.5 5.6-11.2 7.4-13 15.4-30.4 14.4-31.3 0-.1 0-.4.2-.7.2-.3.2-1-.2-2.2-1.1-3.6-1.3-5.2-.7-5.6.2-.3.4-.6.3-.8-.1-.2 0-.5.4-.8.3-.3.6-.4.6-.2s.3 0 .6-.2c.3-.3.6-.4.6-.2s.4 0 .8-.4.8-.6.8-.4c0 .2.3 0 .7-.3.4-.4.9-.6 1-.5.8.8 5.8-5.4 8.3-10.2l4.5-8.6 5.7-10.6c2-3.8 6.2-11.2 9.3-16.4l7.8-13.7a144 144 0 0 1 15.6-23.5c14.5-14.8 29.5-13.1 76.4 8.4 2.3 1.1 7 3 10.6 4.4 3.4 1.3 9.3 3.7 12.9 5.4 10.2 4.8 10.7 5 11 4.7 0-.1.2 0 .2.3 0 .2.2.3.4.2.2-.1.5 0 .6.2.1.2.4.3.6.2.2-.1.4 0 .4.2 0 .3.1.4.2.3.2-.2 1.2.2 2.2.7 1.1.6 2 .9 2 .7a43.5 43.5 0 0 0 10.5 4.7l2.5 1c1.2.6 2.3 1 2.5 1h.6a13.5 13.5 0 0 0 1.2.4l2.6.5c.5 0 .9.3.9.4 0 .2.2.3.6.2.3-.1.7 0 1 .2.2.3.4.3.4.2a9 9 0 0 1 2.9.8 42.3 42.3 0 0 0 6.3 1.8c.8.3 1.6.4 1.9.4.3 0 .5 0 .5.3 0 .2.2.3.4.2l3.2.8c1.6.5 3 .9 3.3.8.1-.1.3 0 .3.2 0 .3.3.4.6.3.3-.2.6 0 .6.2s.3.3.6.2c.3-.2.7 0 .8.1.2.3.5.4.7.3a44.1 44.1 0 0 0 8.9 1.2c3 .1 6 .4 6 .5 0 .1 4.7.6 6 .6 1 0 1.6.1 1.3.3-.3.2.3.2 1.3.1h1.3c-.2.3.7.4 2 .4 1.4 0 2.2 0 1.8-.2a42 42 0 0 1 7.2-.3c11.2-.2 15.2-1 15.3-3 0-.8.1-.8.4.1.3 1 .3 1 .4.1 0-.5.3-.9.6-.9s.6-.2.6-.4c0-.1.4-.4.8-.5 1-.3 1 0 .3.9-.3.3-.3.4 0 .3.2-.2.5 0 .6.2.1.3.3.1.3-.4 0-.4.2-1 .5-1 .4-.1.5-10.5.6-49.6L400 0h-11l-.1 1.5M32.2 81c-6.7 1.2-11.7 6-13.2 12.9-3.2 14.3 11.1 25.2 24.6 18.6 17.5-8.5 8-35-11.4-31.5m8 5.2c7.4 3.5 9.8 14 4.5 19.4a11.5 11.5 0 0 1-3 2.4l-.7.6c-1.3 1.3-6 1.7-9.9.9-2.5-.5-6-4-7.5-7.2-4.4-10 6.7-20.8 16.7-16m353.9 14.9-1.4.6c-.8.2-.8.1.2-.4 1.4-.7 1.7-.7 1.2-.2m-8.3 1.9h-3c-.8 0-.1-.2 1.5-.2 1.7 0 2.3.1 1.5.2"/></g></svg>